<svg width="1800" height="4919" viewBox="0 0 1800 4919" fill="none" xmlns="http://www.w3.org/2000/svg">
<g clip-path="url(#clip0_326_816)">
<rect width="1800" height="4919" fill="white"/>
<rect x="-716" y="1951" width="2670" height="1447" fill="#FBFBFB"/>
<circle opacity="0.03" cx="199.5" cy="2233.5" r="48.5" stroke="#04488F" stroke-width="20"/>
<circle opacity="0.03" cx="-62.5" cy="3298.5" r="309.5" stroke="#04488F" stroke-width="200"/>
<circle opacity="0.03" cx="1104.5" cy="3720.5" r="48.5" stroke="#04488F" stroke-width="20"/>
<circle opacity="0.03" cx="121" cy="701" r="15" stroke="#04488F" stroke-width="10"/>
<circle opacity="0.03" cx="113" cy="2694" r="15" stroke="#04488F" stroke-width="10"/>
<circle opacity="0.03" cx="95" cy="2182" r="15" stroke="#04488F" stroke-width="10"/>
<circle opacity="0.03" cx="1081.5" cy="3183.5" r="48.5" stroke="#04488F" stroke-width="20"/>
<circle opacity="0.03" cx="1448" cy="3125" r="15" stroke="#04488F" stroke-width="10"/>
<circle opacity="0.03" cx="1038.5" cy="870.5" r="48.5" stroke="#04488F" stroke-width="20"/>
<circle opacity="0.03" cx="1421" cy="3799" r="15" stroke="#04488F" stroke-width="10"/>
<path d="M1356.33 -82.7335C1398.3 -199.538 1532.99 -198.762 1617.47 -166.682L1702.66 -94.332L2038.57 -13.2012C2115.8 52.3888 2149.06 176.594 2206.77 215.04C2264.48 253.486 2328.11 190.909 2351.01 249.106C2290.01 395.238 2222.82 835.438 1868.13 879.6C1477.46 928.242 1160.5 679.164 1338.43 509.61C1672.03 191.71 1303.86 63.2718 1356.33 -82.7335Z" fill="#04488F"/>
</g>
<defs>
<clipPath id="clip0_326_816">
<rect width="1800" height="4919" fill="white"/>
</clipPath>
</defs>
</svg>
