<svg width="320" height="7496" viewBox="0 0 320 7496" fill="none" xmlns="http://www.w3.org/2000/svg">
<g clip-path="url(#clip0_648_413)">
<rect width="320" height="7496" fill="white"/>
<circle opacity="0.03" cx="199" cy="2426" r="15" stroke="#04488F" stroke-width="10"/>
<circle opacity="0.03" cx="303.5" cy="1414.5" r="48.5" stroke="#04488F" stroke-width="20"/>
<circle opacity="0.03" cx="7.5" cy="3389.5" r="48.5" stroke="#04488F" stroke-width="20"/>
<circle opacity="0.03" cx="245.5" cy="4313.5" r="48.5" stroke="#04488F" stroke-width="20"/>
<circle opacity="0.03" cx="-9.5" cy="3923.5" r="195.5" stroke="#04488F" stroke-width="200"/>
<circle opacity="0.03" cx="87" cy="2846" r="15" stroke="#04488F" stroke-width="10"/>
<circle opacity="0.03" cx="68" cy="745" r="15" stroke="#04488F" stroke-width="10"/>
<circle opacity="0.03" cx="286" cy="3421" r="15" stroke="#04488F" stroke-width="10"/>
<circle opacity="0.03" cx="218.5" cy="2893.5" r="48.5" stroke="#04488F" stroke-width="20"/>
<circle opacity="0.03" cx="68.5" cy="538.5" r="48.5" stroke="#04488F" stroke-width="20"/>
<path d="M438.202 210.678C500.283 198.555 535.108 257.711 543.121 303.059L533.694 359.232L585.882 527.436C577.336 578.36 531.658 625.345 529.897 660.641C528.137 695.936 572.136 707.448 552.644 732.665C472.758 744.114 262.551 829.63 150.625 685.92C27.3426 527.629 53.6106 323.875 174.272 357.486C400.504 420.504 360.601 225.831 438.202 210.678Z" fill="#04488F"/>
<g style="mix-blend-mode:screen" opacity="0.07">
<circle cx="430" cy="686" r="100" stroke="white" stroke-width="50"/>
</g>
</g>
<defs>
<clipPath id="clip0_648_413">
<rect width="320" height="7496" fill="white"/>
</clipPath>
</defs>
</svg>
