<svg width="468" height="7496" viewBox="0 0 468 7496" fill="none" xmlns="http://www.w3.org/2000/svg">
<g clip-path="url(#clip0_348_428)">
<rect width="468" height="7496" fill="white"/>
<circle opacity="0.03" cx="273" cy="2426" r="15" stroke="#04488F" stroke-width="10"/>
<circle opacity="0.03" cx="377.5" cy="1414.5" r="48.5" stroke="#04488F" stroke-width="20"/>
<circle opacity="0.03" cx="7.5" cy="3389.5" r="48.5" stroke="#04488F" stroke-width="20"/>
<circle opacity="0.03" cx="319.5" cy="4313.5" r="48.5" stroke="#04488F" stroke-width="20"/>
<circle opacity="0.03" cx="-9.5" cy="3923.5" r="195.5" stroke="#04488F" stroke-width="200"/>
<circle opacity="0.03" cx="68" cy="745" r="15" stroke="#04488F" stroke-width="10"/>
<circle opacity="0.03" cx="360" cy="3421" r="15" stroke="#04488F" stroke-width="10"/>
<circle opacity="0.03" cx="292.5" cy="2893.5" r="48.5" stroke="#04488F" stroke-width="20"/>
<circle opacity="0.03" cx="68.5" cy="538.5" r="48.5" stroke="#04488F" stroke-width="20"/>
<path d="M583.203 208.678C645.284 196.556 680.109 255.711 688.122 301.06L678.695 357.232L730.883 525.437C722.337 576.36 676.659 623.346 674.898 658.641C673.137 693.937 717.137 705.449 697.645 730.665C617.759 742.114 407.552 827.631 295.626 683.92C172.344 525.63 198.612 321.875 319.273 355.486C545.505 418.504 505.602 223.832 583.203 208.678Z" fill="#04488F"/>
<g style="mix-blend-mode:screen" opacity="0.07">
<circle cx="575" cy="684" r="100" stroke="white" stroke-width="50"/>
</g>
</g>
<defs>
<clipPath id="clip0_348_428">
<rect width="468" height="7496" fill="white"/>
</clipPath>
</defs>
</svg>
