<svg width="1920" height="4857" viewBox="0 0 1920 4857" fill="none" xmlns="http://www.w3.org/2000/svg">
<g clip-path="url(#clip0_308_173)">
<rect width="1920" height="4857" fill="white"/>
<rect x="-375" y="2178" width="2670" height="1447" fill="#FBFBFB"/>
<path d="M1064.1 -229.271C1118.9 -381.752 1294.73 -380.738 1405.01 -338.861L1516.22 -244.412L1954.73 -138.5C2055.55 -52.8761 2098.97 109.267 2174.31 159.456C2249.65 209.645 2332.71 127.954 2362.61 203.927C2282.97 394.694 2195.26 969.349 1732.23 1027C1222.23 1090.5 808.459 765.342 1040.73 544C1476.23 129 995.608 -38.6691 1064.1 -229.271Z" fill="#04488F"/>
<g style="mix-blend-mode:screen" opacity="0.07">
<circle cx="1920" cy="258" r="514" stroke="white" stroke-width="200"/>
</g>
<circle opacity="0.03" cx="202.5" cy="852.5" r="48.5" stroke="#04488F" stroke-width="20"/>
<circle opacity="0.03" cx="1729.5" cy="1315.5" r="48.5" stroke="#04488F" stroke-width="20"/>
<circle opacity="0.03" cx="1718.5" cy="2979.5" r="48.5" stroke="#04488F" stroke-width="20"/>
<circle opacity="0.03" cx="213.5" cy="2489.5" r="48.5" stroke="#04488F" stroke-width="20"/>
<circle opacity="0.03" cx="-70.5" cy="4096.5" r="309.5" stroke="#04488F" stroke-width="200"/>
<circle opacity="0.03" cx="1776.5" cy="4476.5" r="48.5" stroke="#04488F" stroke-width="20"/>
<circle opacity="0.03" cx="270" cy="724" r="15" stroke="#04488F" stroke-width="10"/>
<circle opacity="0.03" cx="135" cy="2338" r="15" stroke="#04488F" stroke-width="10"/>
<circle opacity="0.03" cx="95" cy="2568" r="15" stroke="#04488F" stroke-width="10"/>
<circle opacity="0.03" cx="1815" cy="3157" r="15" stroke="#04488F" stroke-width="10"/>
<circle opacity="0.03" cx="1658" cy="4072" r="15" stroke="#04488F" stroke-width="10"/>
</g>
<defs>
<clipPath id="clip0_308_173">
<rect width="1920" height="4857" fill="white"/>
</clipPath>
</defs>
</svg>
