<svg width="100" height="20" viewBox="0 0 100 20" fill="none" xmlns="http://www.w3.org/2000/svg">
<path d="M17.9126 8.33345H7.22365C7.09417 8.33345 7.08395 8.28355 7.2032 8.22699L23.4087 0.106455C23.528 0.0465741 23.5177 0 23.3883 0H16.703C16.5633 0 16.3622 0.0499009 16.243 0.106455L3.61523 6.4605C3.49597 6.52038 3.39716 6.66676 3.39716 6.80315V0.232871C3.39716 0.106455 3.29494 0 3.15524 0H0.238517C0.109036 0 0 0.106455 0 0.232871V19.7009C0 19.8273 0.109036 19.9337 0.238517 19.9337H3.15524C3.29494 19.9337 3.39716 19.8273 3.39716 19.7009V11.4473C3.39716 11.5737 3.5062 11.6801 3.6459 11.6801L18.1613 11.6602C19.6606 11.6602 20.4102 12.4785 20.4102 14.1186V19.7009C20.4102 19.8273 20.509 19.9337 20.6487 19.9337H23.5961C23.7256 19.9337 23.838 19.8273 23.838 19.7009V13.2637C23.838 9.9835 21.8584 8.33345 17.9126 8.33345Z" fill="white"/>
<path d="M30.1522 11.6635C30.0228 11.6635 29.9137 11.77 29.9137 11.8964V19.7042C29.9137 19.8306 29.8047 19.9371 29.6752 19.9371H26.7585C26.6188 19.9371 26.5098 19.8306 26.5098 19.7042V8.56964C26.5098 8.44323 26.6188 8.33677 26.7585 8.33677H50.1059C50.2456 8.33677 50.3444 8.44323 50.3444 8.56964V11.4306C50.3444 11.557 50.2456 11.6635 50.1059 11.6635H30.1522ZM26.7551 3.32672C26.6154 3.32672 26.5063 3.22027 26.5063 3.09385V0.232871C26.5063 0.106455 26.6154 0 26.7551 0H50.1025C50.2422 0 50.341 0.106455 50.341 0.232871V3.09053C50.341 3.21694 50.2422 3.3234 50.1025 3.3234H26.7551V3.32672Z" fill="white"/>
<path d="M49.8939 19.9973C49.7542 19.9973 49.6929 19.9008 49.7542 19.781L58.1773 3.357C58.7463 2.24587 59.2267 1.47407 59.605 1.04492C60.1127 0.469401 60.7737 0.126748 61.5812 0.0302734C62.3922 0.126748 63.0498 0.459421 63.5609 1.01498C63.7415 1.21126 63.9426 1.50401 64.1811 1.90322C64.4094 2.29245 64.8694 3.14409 64.8694 3.14409C64.9307 3.26052 65.0295 3.44682 65.0908 3.56326L73.3844 19.7844C73.4457 19.9008 73.3742 20.0006 73.2447 20.0006H70.328C70.1985 20.0006 70.0384 19.9041 69.977 19.7844L62.4331 5.02036C62.1128 4.38496 61.8334 4.07224 61.6153 4.07224C61.3768 4.07224 60.8964 4.8141 60.8964 4.8141C60.8248 4.93054 60.7158 5.11684 60.6578 5.22329L53.1343 19.7844C53.073 19.9008 52.9163 20.0006 52.7834 20.0006H49.8939V19.9973Z" fill="white"/>
<path d="M81.8046 11.6635H81.8558C81.9273 11.6635 82.0943 11.6635 82.2237 11.6635L94.0235 11.6435C94.0371 11.6435 94.0508 11.6402 94.061 11.6402V11.6435C98.0067 11.6435 99.9966 9.95356 99.9966 6.67674V4.98676C99.9966 1.66004 98.017 0 94.0712 0H76.3699C76.2404 0 76.1313 0.106455 76.1313 0.232871V3.05393C76.1313 3.19033 76.2404 3.29678 76.3699 3.29678H94.3131C95.8124 3.29678 96.562 4.95682 96.562 5.78518C96.562 6.61353 95.8635 8.24362 94.3642 8.27357C94.3234 8.27357 94.2552 8.27689 94.1973 8.28687C94.1734 8.28022 94.1496 8.27357 94.1257 8.27357C94.1257 8.27357 82.0568 8.33345 82.0261 8.33345C78.1008 8.34343 76.1313 10.0035 76.1313 13.2603V19.7009C76.1313 19.8273 76.2404 19.9337 76.3699 19.9337H99.7581C99.8876 19.9337 100 19.8273 100 19.7009V16.8698C100 16.7434 99.891 16.637 99.7581 16.637H79.7977C79.6682 16.637 79.5592 16.5305 79.5592 16.4041V14.1219C79.5558 12.4819 80.3054 11.6635 81.8046 11.6635Z" fill="white"/>
</svg>
