<svg width="20" height="20" viewBox="0 0 20 20" fill="none" xmlns="http://www.w3.org/2000/svg">
<g clip-path="url(#clip0)">
<path d="M19.9998 6.9074C19.9998 8.97873 19.9998 11.0504 19.9998 13.1218C19.9841 13.4098 19.9623 13.6975 19.9543 13.9856C19.9378 14.5602 19.8831 15.1299 19.7549 15.6907C19.5295 16.6768 19.1032 17.5556 18.3934 18.2907C17.4639 19.2538 16.304 19.7284 15.0052 19.8916C14.4496 19.9613 13.8859 19.9648 13.326 19.9993C13.2453 20.0042 13.1645 20.0138 13.0842 20.0211C11.0315 20.0211 8.97848 20.0211 6.92583 20.0211C6.6216 20.0054 6.31738 19.9839 6.01277 19.9747C5.41044 19.956 4.81386 19.8935 4.2276 19.7514C2.98277 19.4495 1.95185 18.8128 1.18229 17.7778C0.522947 16.8913 0.211452 15.8731 0.113105 14.7886C0.0526428 14.1197 0.0155235 13.4462 0.0151409 12.7751C0.0147582 10.5248 -0.0369026 8.27424 0.0560868 6.02439C0.0809605 5.4218 0.137596 4.82419 0.278802 4.23692C0.578435 2.9896 1.21367 1.95758 2.24574 1.18567C3.13354 0.521401 4.15489 0.209955 5.24245 0.110736C5.89031 0.0517414 6.54239 0.0134331 7.19255 0.0134331C9.45223 0.01305 11.7127 -0.0394324 13.972 0.0532737C14.5456 0.0766418 15.115 0.12491 15.6753 0.253243C16.6557 0.478113 17.5312 0.902186 18.264 1.60821C19.231 2.54025 19.7086 3.70444 19.8716 5.0096C19.9417 5.57005 19.9447 6.13855 19.9792 6.70321C19.9826 6.7714 19.9926 6.83959 19.9998 6.9074ZM1.79533 10.0065C1.78691 10.0065 1.77811 10.0065 1.76969 10.0065C1.78653 11.2293 1.7961 12.4525 1.8225 13.6749C1.83513 14.2519 1.87493 14.828 2.01307 15.3934C2.24153 16.3286 2.7325 17.079 3.56022 17.5847C4.15451 17.9478 4.81883 18.1034 5.50381 18.1562C6.08777 18.2015 6.67441 18.2267 7.2599 18.2317C8.72592 18.244 10.1916 18.2455 11.6576 18.2405C12.7314 18.2367 13.807 18.2516 14.8755 18.111C15.4434 18.0363 15.9879 17.8743 16.4766 17.5682C17.4616 16.9511 17.9479 16.0171 18.0861 14.8954C18.1645 14.2584 18.1913 13.6133 18.2093 12.9708C18.2327 12.1438 18.2307 11.3155 18.2269 10.4881C18.22 9.11817 18.2097 7.74865 18.1871 6.37912C18.1775 5.79377 18.1397 5.20881 17.9962 4.63648C17.6778 3.36579 16.9163 2.50309 15.6622 2.09472C15.0213 1.88594 14.3558 1.84189 13.6899 1.8235C12.8067 1.79937 11.9231 1.78404 11.0396 1.78596C9.48016 1.78902 7.92077 1.80166 6.36138 1.82312C5.81761 1.8304 5.27383 1.87024 4.73923 1.98861C3.87095 2.18092 3.14081 2.59388 2.60583 3.31867C2.1738 3.90402 1.97098 4.57978 1.89904 5.29079C1.83819 5.88954 1.80949 6.49367 1.79954 7.09587C1.78347 8.06546 1.79533 9.03619 1.79533 10.0065Z" fill="white"/>
<path d="M15.137 10.0258C15.1366 12.8568 12.8322 15.1561 9.9939 15.1526C7.16365 15.1492 4.84236 12.8376 4.87335 9.95495C4.9032 7.15921 7.18087 4.86684 10.0406 4.87527C12.8467 4.8837 15.1374 7.19369 15.137 10.0258ZM13.3526 10.0197C13.3633 8.18127 11.8713 6.69453 10.0708 6.66158C8.18539 6.62711 6.6811 8.14909 6.65546 9.96108C6.62867 11.847 8.15209 13.3483 9.96366 13.3686C11.8353 13.3901 13.361 11.8627 13.3526 10.0197Z" fill="white"/>
<path d="M15.3415 3.48145C16.0082 3.48221 16.532 4.01431 16.5309 4.68892C16.5294 5.33825 15.9867 5.87571 15.3373 5.87073C14.6765 5.86575 14.1422 5.32905 14.1445 4.67207C14.1465 4.01125 14.6803 3.48068 15.3415 3.48145Z" fill="white"/>
</g>
<defs>
<clipPath id="clip0">
<rect width="20" height="20" fill="white"/>
</clipPath>
</defs>
</svg>
