<svg width="1299" height="4919" viewBox="0 0 1299 4919" fill="none" xmlns="http://www.w3.org/2000/svg">
<g clip-path="url(#clip0_326_816)">
<rect width="1299" height="4919" fill="white"/>
<rect x="-716" y="1951" width="2670" height="1447" fill="#FBFBFB"/>
<circle opacity="0.03" cx="199.5" cy="2233.5" r="48.5" stroke="#04488F" stroke-width="20"/>
<circle opacity="0.03" cx="-62.5" cy="3298.5" r="309.5" stroke="#04488F" stroke-width="200"/>
<circle opacity="0.03" cx="854.5" cy="3720.5" r="48.5" stroke="#04488F" stroke-width="20"/>
<circle opacity="0.03" cx="121" cy="701" r="15" stroke="#04488F" stroke-width="10"/>
<circle opacity="0.03" cx="113" cy="2694" r="15" stroke="#04488F" stroke-width="10"/>
<circle opacity="0.03" cx="95" cy="2182" r="15" stroke="#04488F" stroke-width="10"/>
<circle opacity="0.03" cx="831.5" cy="3183.5" r="48.5" stroke="#04488F" stroke-width="20"/>
<circle opacity="0.03" cx="1072" cy="3125" r="15" stroke="#04488F" stroke-width="10"/>
<circle opacity="0.03" cx="855.5" cy="794.5" r="48.5" stroke="#04488F" stroke-width="20"/>
<circle opacity="0.03" cx="1045" cy="3799" r="15" stroke="#04488F" stroke-width="10"/>
<path d="M877.326 -41.7336C919.3 -158.538 1053.99 -157.762 1138.47 -125.682L1223.66 -53.332L1559.57 27.7988C1636.8 93.3888 1670.06 217.594 1727.77 256.04C1785.48 294.486 1849.11 231.909 1872.01 290.106C1811.01 436.238 1743.82 876.438 1389.13 920.6C998.46 969.242 681.498 720.163 859.427 550.61C1193.03 232.71 824.859 104.272 877.326 -41.7336Z" fill="#04488F"/>
<g style="mix-blend-mode:screen" opacity="0.07">
<circle cx="1461" cy="408" r="303" stroke="white" stroke-width="200"/>
</g>
</g>
<defs>
<clipPath id="clip0_326_816">
<rect width="1299" height="4919" fill="white"/>
</clipPath>
</defs>
</svg>
