<svg width="2904" height="4857" viewBox="0 0 2904 4857" fill="none" xmlns="http://www.w3.org/2000/svg">
<g clip-path="url(#clip0_377_177)">
<rect width="2904" height="4857" fill="white"/>
<rect y="2198" width="2904" height="1447" fill="#FBFBFB"/>
<path d="M2056.1 -229.271C2110.9 -381.752 2286.73 -380.738 2397.01 -338.861L2508.22 -244.412L2946.73 -138.5C3047.55 -52.8761 3090.97 109.267 3166.31 159.456C3241.65 209.645 3324.71 127.954 3354.61 203.927C3274.97 394.694 3187.26 969.349 2724.23 1027C2214.23 1090.5 1800.46 765.342 2032.73 544C2468.23 129 1987.61 -38.6691 2056.1 -229.271Z" fill="#04488F"/>
<g style="mix-blend-mode:screen" opacity="0.07">
<circle cx="2893" cy="238" r="514" stroke="white" stroke-width="200"/>
</g>
<circle opacity="0.03" cx="202.5" cy="852.5" r="48.5" stroke="#04488F" stroke-width="20"/>
<circle opacity="0.03" cx="2713.5" cy="1315.5" r="48.5" stroke="#04488F" stroke-width="20"/>
<circle opacity="0.03" cx="2702.5" cy="2979.5" r="48.5" stroke="#04488F" stroke-width="20"/>
<circle opacity="0.03" cx="213.5" cy="2489.5" r="48.5" stroke="#04488F" stroke-width="20"/>
<circle opacity="0.03" cx="-70.5" cy="4096.5" r="309.5" stroke="#04488F" stroke-width="200"/>
<circle opacity="0.03" cx="2760.5" cy="4476.5" r="48.5" stroke="#04488F" stroke-width="20"/>
<circle opacity="0.03" cx="270" cy="724" r="15" stroke="#04488F" stroke-width="10"/>
<circle opacity="0.03" cx="135" cy="2338" r="15" stroke="#04488F" stroke-width="10"/>
<circle opacity="0.03" cx="95" cy="2568" r="15" stroke="#04488F" stroke-width="10"/>
<circle opacity="0.03" cx="2799" cy="3157" r="15" stroke="#04488F" stroke-width="10"/>
<circle opacity="0.03" cx="2642" cy="4072" r="15" stroke="#04488F" stroke-width="10"/>
</g>
<defs>
<clipPath id="clip0_377_177">
<rect width="2904" height="4857" fill="white"/>
</clipPath>
</defs>
</svg>
