<svg width="74" height="50" viewBox="0 0 74 50" fill="none" xmlns="http://www.w3.org/2000/svg">
<path d="M72.0323 49.2437H1.96726L1.73642 48.5058C0.176964 43.4328 -0.269557 38.083 0.427339 32.8216C1.12423 27.5602 2.94814 22.5112 5.77455 18.0191C8.60097 13.5269 12.3633 9.69755 16.8049 6.79228C21.2464 3.887 26.2625 1.97424 31.5107 1.18457C36.7589 0.394901 42.1158 0.746908 47.2156 2.21656C52.3154 3.68622 57.038 6.23892 61.0612 9.70042C65.0843 13.1619 68.3132 17.4507 70.5275 22.2741C72.7418 27.0974 73.8893 32.3417 73.8917 37.6491C73.8982 41.3293 73.3491 44.9894 72.2632 48.5058L72.0323 49.2437ZM3.52937 47.1355H70.4702C71.8233 42.3524 72.1354 37.3348 71.3856 32.4208C70.6358 27.5068 68.8414 22.8106 66.1235 18.6486C63.4055 14.4866 59.8271 10.9556 55.6293 8.29326C51.4315 5.63097 46.7118 3.89933 41.7883 3.21503C36.8648 2.53072 31.8517 2.90963 27.087 4.32624C22.3223 5.74285 17.9165 8.16424 14.1666 11.4273C10.4167 14.6903 7.40965 18.7192 5.34818 23.2424C3.28671 27.7657 2.21867 32.6782 2.21602 37.6491C2.21118 40.8569 2.65321 44.0497 3.52937 47.1355Z" fill="#04488F"/>
<path d="M35.9458 1.81104H38.0539V7.0813H35.9458V1.81104Z" fill="#04488F"/>
<path d="M18.1675 7.13916L19.9931 6.08511L22.6282 10.6492L20.8026 11.7032L18.1675 7.13916Z" fill="#04488F"/>
<path d="M5.43457 20.6465L6.48862 18.8209L11.0536 21.4565L9.99954 23.2821L5.43457 20.6465Z" fill="#04488F"/>
<path d="M1.16211 36.5952H6.43238V38.7033H1.16211V36.5952Z" fill="#04488F"/>
<path d="M67.5674 36.5952H72.8376V38.7033H67.5674V36.5952Z" fill="#04488F"/>
<path d="M62.9429 21.4453L67.5078 18.8096L68.5619 20.6353L63.9969 23.2709L62.9429 21.4453Z" fill="#04488F"/>
<path d="M51.3735 10.6553L54.0087 6.09122L55.8343 7.14527L53.1992 11.7093L51.3735 10.6553Z" fill="#04488F"/>
<path d="M36.9998 42.9194C35.9574 42.9194 34.9384 42.6103 34.0718 42.0312C33.2051 41.4521 32.5296 40.629 32.1307 39.666C31.7318 38.703 31.6274 37.6433 31.8308 36.621C32.0341 35.5987 32.5361 34.6596 33.2731 33.9225C34.0102 33.1855 34.9493 32.6835 35.9716 32.4802C36.9939 32.2768 38.0536 32.3812 39.0166 32.7801C39.9796 33.179 40.8027 33.8545 41.3818 34.7212C41.9609 35.5879 42.27 36.6068 42.27 37.6492C42.2684 39.0464 41.7126 40.386 40.7246 41.374C39.7366 42.362 38.397 42.9178 36.9998 42.9194ZM36.9998 34.487C36.3743 34.487 35.763 34.6725 35.243 35.0199C34.7229 35.3674 34.3176 35.8613 34.0783 36.4391C33.839 37.0169 33.7763 37.6527 33.8984 38.2661C34.0204 38.8795 34.3215 39.4429 34.7638 39.8852C35.206 40.3274 35.7695 40.6286 36.3829 40.7506C36.9963 40.8726 37.6321 40.81 38.2099 40.5706C38.7877 40.3313 39.2815 39.926 39.629 39.406C39.9765 38.886 40.1619 38.2746 40.1619 37.6492C40.1619 36.8105 39.8288 36.0062 39.2357 35.4132C38.6427 34.8202 37.8384 34.487 36.9998 34.487Z" fill="#04488F"/>
<path d="M20.9219 23.0679L22.4123 21.5774L34.7553 33.9204L33.2649 35.4109L20.9219 23.0679Z" fill="#04488F"/>
</svg>
