<svg width="78" height="78" viewBox="0 0 78 78" fill="none" xmlns="http://www.w3.org/2000/svg">
<g clip-path="url(#clip0)">
<path d="M72.6761 19.5527C72.2833 18.877 71.4168 18.6478 70.7412 19.0406L63.8301 23.0356C63.1544 23.4285 62.9251 24.2949 63.318 24.9706C63.7108 25.6462 64.5773 25.8755 65.2529 25.4827L72.164 21.4877C72.8397 21.0946 73.069 20.2284 72.6761 19.5527Z" fill="#04488F"/>
<path d="M72.164 56.52L65.2529 52.525C64.5773 52.1322 63.7108 52.3614 63.318 53.0371C62.9251 53.7128 63.1544 54.5792 63.8301 54.972L70.7412 58.967C71.4168 59.3599 72.2833 59.1306 72.6761 58.455C73.069 57.7791 72.8397 56.9129 72.164 56.52Z" fill="#04488F"/>
<path d="M39.1093 66.9649C38.3256 66.9067 37.6433 67.4948 37.585 68.2785C37.5798 68.3487 37.5798 68.4191 37.585 68.4892V76.4714C37.5268 77.2552 38.1149 77.9375 38.8986 77.9957C39.6824 78.054 40.3647 77.4658 40.4229 76.6821C40.4282 76.6119 40.4282 76.5416 40.4229 76.4714V68.4892C40.481 67.7057 39.8929 67.0232 39.1093 66.9649Z" fill="#04488F"/>
<path d="M14.1699 23.0356L7.25879 19.0406C6.58312 18.6478 5.71669 18.877 5.32383 19.5527C4.93098 20.2284 5.16024 21.0948 5.83591 21.4877L12.747 25.4827C13.4227 25.8755 14.2891 25.6462 14.682 24.9706C15.0748 24.2947 14.8456 23.4285 14.1699 23.0356Z" fill="#04488F"/>
<path d="M39.1093 0.00397859C38.3256 -0.0542655 37.6433 0.533843 37.585 1.3176C37.5797 1.38776 37.5797 1.45813 37.585 1.52829V9.51047C37.5893 10.2901 38.2204 10.9212 39.0001 10.9255C39.786 10.9255 40.423 10.2886 40.423 9.50265V1.52849C40.481 0.744734 39.8929 0.0622227 39.1093 0.00397859Z" fill="#04488F"/>
<path d="M25.4748 12.747L21.4877 5.83591C21.0948 5.16024 20.2284 4.93098 19.5527 5.32383C18.877 5.71669 18.6478 6.58312 19.0406 7.25879L23.0278 14.1699C23.4207 14.8456 24.2871 15.0748 24.9628 14.682C25.6384 14.2889 25.8677 13.4227 25.4748 12.747Z" fill="#04488F"/>
<path d="M39.2108 26.3741C39.1406 26.3688 39.0703 26.3688 39.0001 26.3741C32.0268 26.3741 26.374 32.0269 26.374 39.0002C26.374 39.7861 27.011 40.423 27.7969 40.423C28.5797 40.4187 29.212 39.7829 29.212 39.0002C29.2077 33.5987 33.583 29.2163 38.9845 29.212C38.9897 29.212 38.9948 29.212 39.0001 29.212C39.7838 29.2703 40.4662 28.6821 40.5244 27.8984C40.5827 27.1146 39.9945 26.4321 39.2108 26.3741Z" fill="#04488F"/>
<path d="M77.785 38.8909C77.7328 38.1882 77.1742 37.6294 76.4714 37.5772H68.4892C67.7055 37.519 67.0232 38.1071 66.9649 38.8909C66.9067 39.6746 67.4948 40.3569 68.2785 40.4152C68.3487 40.4205 68.4193 40.4205 68.4894 40.4152H76.4716C77.2552 40.3571 77.8433 39.6746 77.785 38.8909Z" fill="#04488F"/>
<path d="M9.72141 37.585C9.65124 37.5797 9.58088 37.5797 9.51071 37.585H1.52854C0.744781 37.6433 0.156672 38.3258 0.214916 39.1093C0.267101 39.812 0.825697 40.3708 1.52854 40.423H9.51071C10.2945 40.4812 10.9768 39.8931 11.035 39.1093C11.0933 38.3256 10.5052 37.6431 9.72141 37.585Z" fill="#04488F"/>
<path d="M39.0059 18.1182C27.4732 18.1166 18.1229 27.4644 18.1211 38.9971C18.1203 44.5375 20.3215 49.8512 24.2397 53.7682C28.1504 57.6888 33.4626 59.889 39.0001 59.8819C50.5328 59.8835 59.8833 50.5357 59.8849 39.003C59.8864 27.4703 50.5386 18.1197 39.0059 18.1182ZM51.759 51.7825C44.7125 58.829 33.2876 58.829 26.2411 51.7825C22.8514 48.3928 20.9498 43.7936 20.9561 39C20.9493 34.2131 22.8514 29.621 26.2411 26.2411V26.2645C33.2876 19.218 44.7125 19.218 51.759 26.2645C58.8058 33.3111 58.8058 44.7359 51.759 51.7825Z" fill="#04488F"/>
<path d="M58.9629 70.7474C58.9618 70.7453 58.9606 70.7431 58.9592 70.7412L54.9642 63.8301C54.5714 63.1544 53.7049 62.9251 53.0293 63.318C52.3536 63.7108 52.1243 64.5773 52.5172 65.2529L56.5122 72.164C56.9035 72.8389 57.7674 73.0698 58.4432 72.68C59.1205 72.2897 59.3532 71.4245 58.9629 70.7474Z" fill="#04488F"/>
<path d="M58.4944 5.32383C57.8188 4.93098 56.9523 5.16024 56.5595 5.83591L52.5645 12.747C52.1689 13.4211 52.3948 14.2882 53.0687 14.6835C53.0701 14.6843 53.0713 14.6851 53.0726 14.6859C53.7477 15.0795 54.6142 14.8514 55.0078 14.1762C55.009 14.174 55.0103 14.1719 55.0115 14.1699L59.0065 7.25879C59.3994 6.58292 59.1701 5.71669 58.4944 5.32383Z" fill="#04488F"/>
<path d="M24.9706 63.318C24.2949 62.9251 23.4285 63.1544 23.0356 63.8301L19.0406 70.7412C18.6478 71.4168 18.877 72.2833 19.5527 72.6761C20.2284 73.069 21.0948 72.8397 21.4877 72.164L25.4827 65.2529C25.8755 64.5771 25.6463 63.7108 24.9706 63.318Z" fill="#04488F"/>
<path d="M14.682 53.0293C14.2891 52.3536 13.4227 52.1243 12.747 52.5172L5.83591 56.5122C5.16024 56.905 4.93098 57.7715 5.32383 58.4471C5.71669 59.1228 6.58312 59.3521 7.25879 58.9592L14.1699 54.9642C14.8456 54.5712 15.0748 53.7049 14.682 53.0293Z" fill="#04488F"/>
</g>
<defs>
<clipPath id="clip0">
<rect width="78" height="78" fill="white"/>
</clipPath>
</defs>
</svg>
