<svg width="23" height="16" viewBox="0 0 23 16" fill="none" xmlns="http://www.w3.org/2000/svg">
<path d="M18.8183 16C18.7486 16 18.6789 16 18.6092 16C18.5988 15.9947 18.5887 15.9858 18.578 15.9846C18.2236 15.9396 17.9077 15.7722 17.6101 15.5428C17.1714 15.2051 16.8137 14.7593 16.4704 14.2935C16.124 13.8236 15.7799 13.3514 15.4268 12.889C15.251 12.6588 15.0524 12.4565 14.8154 12.3196C14.6488 12.2232 14.4779 12.1913 14.303 12.2855C14.0655 12.4134 13.9266 12.6533 13.8205 12.9258C13.6663 13.3218 13.5961 13.7461 13.5576 14.1776C13.5326 14.4573 13.5278 14.7397 13.5013 15.0191C13.4811 15.2313 13.4288 15.4374 13.2868 15.5811C13.0939 15.7764 12.8656 15.8844 12.6165 15.8909C12.1812 15.9026 11.7454 15.8996 11.31 15.8922C11.0491 15.8878 10.7864 15.8835 10.5282 15.8442C9.37153 15.6682 8.31456 15.1598 7.33653 14.3996C6.63782 13.8564 6.02448 13.1927 5.46394 12.4534C4.75459 11.5177 4.13254 10.5006 3.5544 9.44296C2.46398 7.44814 1.5255 5.34954 0.676589 3.19133C0.429162 2.56275 0.13591 1.95551 0 1.26816C0 1.24005 0 1.21173 0 1.18362C0.020735 0.88856 0.194456 0.786896 0.397798 0.737437C0.533534 0.704465 0.673278 0.679524 0.811279 0.67889C1.86528 0.67424 2.91945 0.676354 3.97345 0.676565C4.00238 0.676565 4.03235 0.67424 4.06023 0.681638C4.45245 0.784782 4.79466 0.964227 4.89991 1.50066C4.90061 1.50404 4.90235 1.507 4.90357 1.51017C5.40086 2.97849 5.99991 4.38235 6.71187 5.71456C7.01505 6.28185 7.31859 6.84935 7.70297 7.34394C7.85073 7.53416 8.00859 7.7117 8.21402 7.80914C8.4503 7.92116 8.68727 7.83049 8.81882 7.56756C8.87528 7.45448 8.92163 7.3302 8.95508 7.20423C9.09692 6.66949 9.1417 6.11403 9.14449 5.55773C9.14815 4.77992 9.13299 4.00169 9.10929 3.22431C9.09517 2.75974 9.03105 2.30087 8.90629 1.85723C8.87057 1.7302 8.81673 1.62325 8.73048 1.53807C8.47295 1.28402 8.17639 1.14579 7.84916 1.1014C7.73067 1.08534 7.70732 1.04497 7.76482 0.914135C7.79061 0.855588 7.82285 0.8 7.85857 0.749696C8.02288 0.517622 8.22552 0.35255 8.46389 0.252576C8.79356 0.114135 9.13647 0.0703831 9.48147 0.0422721C9.67802 0.0262087 9.87474 0.0139498 10.0715 0C10.5999 0 11.1286 0 11.6571 0C11.7233 0.0069749 11.7893 0.0160634 11.8555 0.0209247C12.2213 0.0473448 12.5848 0.095535 12.9345 0.234822C13.2272 0.351281 13.4363 0.586526 13.5041 0.955139C13.5542 1.22758 13.5839 1.51059 13.587 1.78959C13.5922 2.24338 13.567 2.6976 13.557 3.1516C13.5396 3.95075 13.5231 4.74991 13.5079 5.54906C13.4997 5.98594 13.499 6.42304 13.5746 6.85316C13.6238 7.13279 13.7057 7.39339 13.9017 7.5777C13.9791 7.65041 14.0658 7.67894 14.1547 7.63583C14.2559 7.58679 14.3596 7.53268 14.4467 7.45553C14.8051 7.13765 15.073 6.71493 15.335 6.28798C16.1264 4.9991 16.7408 3.59038 17.25 2.11107C17.3571 1.79952 17.4589 1.48523 17.5671 1.17453C17.6688 0.882431 17.9069 0.593078 18.1951 0.661136C18.243 0.67255 18.293 0.675931 18.3419 0.675931C19.4512 0.676777 20.5602 0.676777 21.6695 0.676143C21.7273 0.676143 21.7853 0.669591 21.8432 0.664729C22.1171 0.642536 22.3895 0.643805 22.6505 0.765548C22.8578 0.862351 22.9453 1.02193 22.9491 1.29057C22.9538 1.61501 22.8697 1.9145 22.7677 2.20724C22.5065 2.95694 22.1542 3.64555 21.765 4.30309C21.1453 5.34933 20.5062 6.37865 19.8758 7.41559C19.6674 7.7582 19.4578 8.09913 19.302 8.48423C19.1323 8.90399 19.153 9.30494 19.4052 9.65559C19.6584 10.0075 19.9267 10.3459 20.2072 10.6659C20.8631 11.4143 21.5236 12.1575 22.0892 13.0103C22.4625 13.5732 22.8542 14.1286 23 14.8589C23 14.9364 23 15.0138 23 15.0914C22.9462 15.3644 22.8134 15.5608 22.6076 15.6863C22.3945 15.8165 22.1671 15.8863 21.9301 15.8937C20.9267 15.925 19.923 15.9508 18.9194 15.9797C18.8858 15.9806 18.8521 15.993 18.8183 16Z" fill="white"/>
</svg>
