<svg width="50" height="50" viewBox="0 0 50 50" fill="none" xmlns="http://www.w3.org/2000/svg">
<path d="M15.625 0H0V15.6253H15.625V0ZM12.5 12.5002H3.125V3.12506H12.5V12.5002Z" fill="white"/>
<path d="M9.375 6.24951H6.25V9.37487H9.375V6.24951Z" fill="white"/>
<path d="M34.375 0V15.6253H50V0H34.375ZM46.875 12.5002H37.5V3.12506H46.875V12.5002Z" fill="white"/>
<path d="M43.75 6.24951H40.625V9.37487H43.75V6.24951Z" fill="white"/>
<path d="M0 49.9993H15.625V34.375H0V49.9993ZM3.125 37.4999H12.5V46.8744H3.125V37.4999Z" fill="white"/>
<path d="M9.375 40.625H6.25V43.7501H9.375V40.625Z" fill="white"/>
<path d="M31.25 0H25V3.12511H31.25V0Z" fill="white"/>
<path d="M25 12.4998H28.125V9.37473H31.25V6.24962H21.875V3.12451H18.75V6.24962V7.81217V9.37473H25V12.4998Z" fill="white"/>
<path d="M21.875 12.501H18.75V15.6256H21.875V12.501Z" fill="white"/>
<path d="M31.25 15.625H28.125V18.7499H18.75V21.8747H31.25V15.625Z" fill="white"/>
<path d="M3.125 28.1247H6.25V24.9996H3.125V18.7495H0V31.2497H3.125V28.1247Z" fill="white"/>
<path d="M9.375 18.7495H6.25V21.8749H9.375V18.7495Z" fill="white"/>
<path d="M18.75 31.2497H25V28.1247H21.875V24.9996H15.625V18.7495H12.5V24.9996H9.375V31.2497H12.5V28.1247H14.0625H15.625H18.75V31.2497Z" fill="white"/>
<path d="M31.25 25H28.125V31.2505H31.25V25Z" fill="white"/>
<path d="M28.125 34.3755H18.75V37.5003H25V46.8749H18.75V49.9998H28.125V46.8749H34.375V43.7501H28.125V34.3755Z" fill="white"/>
<path d="M21.875 40.625H18.75V43.7501H21.875V40.625Z" fill="white"/>
<path d="M34.375 34.3755H31.25V40.6247H34.375V34.3755Z" fill="white"/>
<path d="M46.875 40.625H37.5V49.9998H40.625V43.7499H46.875V40.625Z" fill="white"/>
<path d="M50 46.8745H43.75V49.9999H50V46.8745Z" fill="white"/>
<path d="M50 34.3755H46.875V37.5001H50V34.3755Z" fill="white"/>
<path d="M37.5 37.5001H40.625V28.125H34.375V31.25H37.5V37.5001Z" fill="white"/>
<path d="M43.75 21.8746H40.625V18.7495H37.5V21.8746H34.375V24.9997H46.875V21.8746H50V18.7495H43.75V21.8746Z" fill="white"/>
<path d="M50 28.125H43.75V31.2501H50V28.125Z" fill="white"/>
</svg>
