<svg width="26" height="26" viewBox="0 0 26 26" fill="none" xmlns="http://www.w3.org/2000/svg">
<g clip-path="url(#clip0_150_1764)">
<path d="M12.9998 17.3337C12.7777 17.3337 12.5653 17.2427 12.4126 17.0823L6.72509 11.124C6.23217 10.6083 6.59834 9.75033 7.31226 9.75033H10.2914V3.52116C10.2914 2.77474 10.8992 2.16699 11.6456 2.16699H14.3539C15.1003 2.16699 15.7081 2.77474 15.7081 3.52116V9.75033H18.6873C19.4012 9.75033 19.7673 10.6083 19.2744 11.124L13.5869 17.0823C13.4342 17.2427 13.2218 17.3337 12.9998 17.3337V17.3337Z" fill="white"/>
<path d="M24.1042 23.8338H1.89583C0.850417 23.8338 0 22.9834 0 21.938V21.3963C0 20.3509 0.850417 19.5005 1.89583 19.5005H24.1042C25.1496 19.5005 26 20.3509 26 21.3963V21.938C26 22.9834 25.1496 23.8338 24.1042 23.8338Z" fill="white"/>
</g>
<defs>
<clipPath id="clip0_150_1764">
<rect width="26" height="26" fill="white" transform="translate(0 0.000488281)"/>
</clipPath>
</defs>
</svg>
