<svg width="768" height="6617" viewBox="0 0 768 6617" fill="none" xmlns="http://www.w3.org/2000/svg">
<g clip-path="url(#clip0_631_490)">
<rect width="768" height="6617" fill="white"/>
<circle opacity="0.03" cx="98.5" cy="634.5" r="48.5" stroke="#04488F" stroke-width="20"/>
<circle opacity="0.03" cx="677.5" cy="1016.5" r="48.5" stroke="#04488F" stroke-width="20"/>
<circle opacity="0.03" cx="-20.5" cy="2326.5" r="48.5" stroke="#04488F" stroke-width="20"/>
<circle opacity="0.03" cx="750.5" cy="3322.5" r="48.5" stroke="#04488F" stroke-width="20"/>
<circle opacity="0.03" cx="9" cy="4506" r="198" stroke="#04488F" stroke-width="200"/>
<circle opacity="0.03" cx="633.5" cy="4355.5" r="48.5" stroke="#04488F" stroke-width="20"/>
<circle opacity="0.03" cx="127" cy="794" r="15" stroke="#04488F" stroke-width="10"/>
<circle opacity="0.03" cy="2490" r="15" stroke="#04488F" stroke-width="10"/>
<circle opacity="0.03" cx="659" cy="3361" r="15" stroke="#04488F" stroke-width="10"/>
<circle opacity="0.03" cx="659" cy="4243" r="15" stroke="#04488F" stroke-width="10"/>
<path d="M761.186 202.042C833.03 168.575 893.225 230.014 916.648 282.748L922.126 353.906L1036.33 542.73C1041.29 607.239 999.914 678.159 1008.42 721.615C1016.92 765.071 1073.91 765.8 1057.81 802.347C964.104 840.366 734.252 1007.77 554.785 866.753C357.111 711.43 327.601 455.708 484.483 460.191C778.625 468.596 671.38 243.877 761.186 202.042Z" fill="#04488F"/>
<g style="mix-blend-mode:screen" opacity="0.07">
<circle cx="783" cy="598" r="199" stroke="white" stroke-width="200"/>
</g>
</g>
<defs>
<clipPath id="clip0_631_490">
<rect width="768" height="6617" fill="white"/>
</clipPath>
</defs>
</svg>
