<svg width="38" height="36" viewBox="0 0 38 36" fill="none" xmlns="http://www.w3.org/2000/svg">
<path d="M33.7001 21.6191V6.59118C33.7001 2.95098 30.2527 0 26.0001 0C21.7475 0 18.3001 2.95098 18.3001 6.59118V29.3607C18.3001 32.339 15.4795 34.7535 12.0001 34.7535C8.52075 34.7535 5.7001 32.339 5.7001 29.3607V14.3328C8.10784 14.0338 9.89546 12.269 9.9001 10.1864V3.59519C9.9001 3.26428 9.58668 2.99599 9.2001 2.99599H8.5001V0.599198C8.5001 0.268291 8.18668 0 7.8001 0H2.2001C1.81352 0 1.5001 0.268291 1.5001 0.599198V2.99599H0.800098C0.413523 2.99599 0.100098 3.26428 0.100098 3.59519V10.1864C0.104735 12.269 1.89236 14.0338 4.3001 14.3328V29.3607C4.3001 33.0009 7.74751 35.9519 12.0001 35.9519C16.2527 35.9519 19.7001 33.0009 19.7001 29.3607V6.59118C19.7001 3.61279 22.5208 1.1984 26.0001 1.1984C29.4795 1.1984 32.3001 3.61279 32.3001 6.59118V21.6191C29.8924 21.9181 28.1047 23.6829 28.1001 25.7655V32.3567C28.1001 32.6876 28.4135 32.9559 28.8001 32.9559H29.5001V35.3527C29.5001 35.6836 29.8135 35.9519 30.2001 35.9519H35.8001C36.1867 35.9519 36.5001 35.6836 36.5001 35.3527V32.9559H37.2001C37.5867 32.9559 37.9001 32.6876 37.9001 32.3567V25.7655C37.8955 23.6829 36.1079 21.9182 33.7001 21.6191ZM2.9001 1.1984H7.1001V2.99599H2.9001V1.1984ZM1.5001 10.1864V4.19439H8.5001V10.1864C8.5001 11.841 6.93306 13.1824 5.0001 13.1824C3.06714 13.1824 1.5001 11.841 1.5001 10.1864ZM35.1001 34.7535H30.9001V32.9559H35.1001V34.7535ZM36.5001 31.7575H29.5001V25.7655C29.5001 24.1109 31.0672 22.7695 33.0001 22.7695C34.9331 22.7695 36.5001 24.1109 36.5001 25.7655V31.7575Z" fill="white"/>
</svg>
