<svg width="50" height="50" viewBox="0 0 50 50" fill="none" xmlns="http://www.w3.org/2000/svg">
<g clip-path="url(#clip0)">
<g clip-path="url(#clip1)">
<path d="M16.5962 24.956C21.6623 24.956 26.7279 24.956 31.7929 24.956C32.2095 24.956 32.4194 24.8665 32.561 24.4176C32.8873 23.3653 33.5414 22.4446 34.428 21.7901C35.3146 21.1355 36.3872 20.7812 37.4894 20.7788C38.5916 20.7765 39.6657 21.1262 40.5551 21.7769C41.4445 22.4277 42.1026 23.3455 42.4334 24.3965C42.5815 24.8714 42.8011 24.9641 43.247 24.9592C45.0581 24.9348 46.8692 24.9462 48.6787 24.943C49.1669 24.943 49.6241 25.0032 49.8731 25.5009C50.2409 26.2377 49.7771 27.0038 48.9049 27.0282C47.6454 27.0607 46.3827 27.0412 45.1216 27.0445C44.9388 27.0548 44.7556 27.0521 44.5732 27.0363C43.3447 26.8737 42.575 27.1046 41.9892 28.4774C41.156 30.4293 39.3335 31.3109 37.1986 31.1726C34.9384 31.0262 33.36 29.8128 32.5968 27.6674C32.4064 27.1323 32.1656 27.0282 31.653 27.0282C21.665 27.0455 11.6765 27.051 1.68748 27.0445C1.40298 27.0525 1.11831 27.0367 0.836434 26.9973C0.592575 26.9599 0.371936 26.8315 0.218882 26.6381C0.0658282 26.4447 -0.00829249 26.2005 0.0114258 25.9547C0.0553611 25.4407 0.301072 25.0666 0.854331 24.9788C1.05556 24.9527 1.25841 24.9413 1.46129 24.9446L16.5962 24.956ZM34.3867 25.9937C34.3874 26.6111 34.5715 27.2143 34.9156 27.7269C35.2598 28.2395 35.7485 28.6384 36.3197 28.873C36.891 29.1076 37.5191 29.1673 38.1244 29.0446C38.7297 28.9219 39.2848 28.6222 39.7195 28.1836C40.1541 27.745 40.4487 27.1873 40.5658 26.5811C40.6828 25.975 40.6172 25.3478 40.3771 24.779C40.137 24.2102 39.7334 23.7255 39.2173 23.3863C38.7013 23.0472 38.0961 22.8689 37.4785 22.874C36.6565 22.8838 35.8714 23.2166 35.2928 23.8004C34.7143 24.3841 34.3888 25.172 34.3867 25.9937Z" fill="white"/>
<path d="M38.6753 7.24519C35.3411 7.24519 32.0037 7.24519 28.6711 7.23543C28.2317 7.23543 28.0056 7.31025 27.8575 7.79496C27.5247 8.84873 26.8634 9.76848 25.9703 10.4198C25.0773 11.071 23.9992 11.4197 22.8937 11.4148C21.7882 11.4099 20.7133 11.0517 19.826 10.3925C18.9388 9.7333 18.2857 8.80773 17.9623 7.75105C17.8305 7.32489 17.6368 7.23543 17.2398 7.23706C11.9328 7.2479 6.62588 7.2479 1.31893 7.23706C0.314925 7.23706 -0.189518 6.6694 0.0724667 5.86913C0.244953 5.33888 0.650135 5.15996 1.1562 5.15346C1.98935 5.1437 2.82249 5.15346 3.65726 5.15346C8.15005 5.15346 12.6445 5.15346 17.1389 5.16321C17.601 5.16321 17.837 5.07863 17.9964 4.57766C18.3319 3.53448 18.9903 2.62483 19.8766 1.98002C20.7629 1.33522 21.8312 0.988611 22.9274 0.99024C24.0236 0.991869 25.091 1.34165 25.9753 1.98909C26.8597 2.63652 27.5154 3.54812 27.8477 4.5923C27.9958 5.05749 28.1992 5.16484 28.6613 5.16321C35.2701 5.14912 41.8783 5.14912 48.4859 5.16321C48.7695 5.15243 49.0533 5.18145 49.3288 5.24942C49.8316 5.39581 50.0253 5.8057 49.9895 6.29041C49.9537 6.77512 49.7015 7.13947 49.1759 7.21429C48.9339 7.24115 48.6903 7.25094 48.4469 7.24357L38.6753 7.24519ZM22.9172 9.32392C23.7404 9.32609 24.5309 9.00206 25.1156 8.42282C25.7003 7.84357 26.0314 7.05632 26.0366 6.23348C26.0434 5.61381 25.8657 5.00612 25.526 4.48766C25.1864 3.96921 24.7002 3.56341 24.1293 3.32186C23.5584 3.08032 22.9285 3.01392 22.3197 3.13113C21.7109 3.24834 21.1507 3.54384 20.7104 3.98009C20.2701 4.41633 19.9694 4.97361 19.8468 5.58107C19.7241 6.18852 19.7849 6.81872 20.0215 7.39155C20.258 7.96437 20.6596 8.45395 21.1753 8.79804C21.6909 9.14212 22.2972 9.32517 22.9172 9.32392Z" fill="white"/>
<path d="M17.6214 46.8394C16.8077 49.4793 14.9381 50.9822 12.5265 51.0001C10.6145 51.0131 8.20131 49.8761 7.37142 46.8394H5.76534C4.24062 46.8394 2.71428 46.8491 1.18956 46.8394C0.403609 46.8312 -0.061783 46.3514 0.0114425 45.6845C0.0765318 45.0925 0.457306 44.7688 1.1619 44.7639C3.03322 44.7525 4.90453 44.7395 6.77422 44.7639C7.24612 44.7639 7.42512 44.6224 7.5618 44.1735C7.89841 43.1317 8.55643 42.2232 9.44149 41.5784C10.3266 40.9335 11.3932 40.5854 12.4884 40.584C13.5836 40.5825 14.6512 40.9278 15.5379 41.5703C16.4247 42.2129 17.0851 43.1196 17.4245 44.1605C17.5872 44.6484 17.7938 44.7623 18.2723 44.7623C28.2787 44.7493 38.284 44.7493 48.2882 44.7623C48.5323 44.7623 48.7764 44.7623 49.0205 44.7753C49.6046 44.8208 49.9675 45.1901 49.9968 45.7512C50.0135 46.0081 49.9322 46.2618 49.7691 46.461C49.606 46.6603 49.3733 46.7903 49.1181 46.8247C48.8557 46.8555 48.5913 46.8658 48.3273 46.8556H18.4334L17.6214 46.8394ZM15.6085 45.7447C15.5988 44.9186 15.2611 44.1302 14.6699 43.5529C14.0786 42.9756 13.2822 42.6568 12.4557 42.6665C11.6293 42.6762 10.8405 43.0137 10.263 43.6047C9.68546 44.1957 9.36646 44.9918 9.37617 45.8179C9.38098 46.227 9.46634 46.631 9.62739 47.0071C9.78843 47.3832 10.022 47.7239 10.3148 48.0097C10.6075 48.2955 10.9537 48.5209 11.3337 48.673C11.7136 48.8251 12.1197 48.9009 12.5289 48.8961C12.9382 48.8913 13.3424 48.806 13.7186 48.645C14.0949 48.4841 14.4357 48.2506 14.7217 47.958C15.0076 47.6653 15.2331 47.3192 15.3853 46.9395C15.5374 46.5597 15.6133 46.1538 15.6085 45.7447Z" fill="white"/>
</g>
</g>
<defs>
<clipPath id="clip0">
<rect width="50" height="50" fill="white"/>
</clipPath>
<clipPath id="clip1">
<rect width="50" height="50" fill="white" transform="translate(0 1)"/>
</clipPath>
</defs>
</svg>
