<svg width="78" height="78" viewBox="0 0 78 78" fill="none" xmlns="http://www.w3.org/2000/svg">
<path d="M69.4688 42.0834V18.1838C73.5967 17.589 76.7812 14.0388 76.7812 9.75C76.7812 5.04684 72.9544 1.21875 68.25 1.21875C63.5456 1.21875 59.7188 5.04684 59.7188 9.75H1.21875V58.5H37.8434C38.4772 68.6839 46.9414 76.7812 57.2812 76.7812C68.0331 76.7812 76.7812 68.0331 76.7812 57.2812C76.7812 51.14 73.9208 45.6605 69.4688 42.0834ZM68.25 3.65625C71.6101 3.65625 74.3438 6.38991 74.3438 9.75C74.3438 13.1101 71.6101 15.8438 68.25 15.8438C64.8899 15.8438 62.1562 13.1101 62.1562 9.75C62.1562 6.38991 64.8899 3.65625 68.25 3.65625ZM3.65625 12.1875H60.0783C60.3696 13.1601 60.8327 14.0558 61.4274 14.8505L53.9736 22.3043C53.4958 22.0752 52.9693 21.9375 52.4062 21.9375C51.8432 21.9375 51.3167 22.0752 50.8402 22.3043L48.3844 19.8486C48.6123 19.3708 48.75 18.8443 48.75 18.2812C48.75 16.2654 47.1096 14.625 45.0938 14.625C43.0779 14.625 41.4375 16.2654 41.4375 18.2812C41.4375 18.8443 41.5752 19.3708 41.8043 19.8473L35.6923 25.9594C35.2146 25.7315 34.6881 25.5938 34.125 25.5938C32.1092 25.5938 30.4688 27.2342 30.4688 29.25C30.4688 31.2658 32.1092 32.9062 34.125 32.9062C36.1408 32.9062 37.7812 31.2658 37.7812 29.25C37.7812 28.6869 37.6435 28.1604 37.4144 27.6839L43.5264 21.5719C44.0042 21.7998 44.5307 21.9375 45.0938 21.9375C45.6568 21.9375 46.1833 21.7998 46.6598 21.5707L49.1156 24.0264C48.8877 24.5042 48.75 25.0307 48.75 25.5938C48.75 27.6096 50.3904 29.25 52.4062 29.25C54.4221 29.25 56.0625 27.6096 56.0625 25.5938C56.0625 25.0307 55.9248 24.5042 55.6957 24.0277L63.1508 16.5738C64.2659 17.4098 65.5895 17.9766 67.0312 18.185V40.4211C64.1587 38.7526 60.8351 37.7812 57.2812 37.7812C51.4556 37.7812 46.2321 40.3626 42.6562 44.4271V39H35.3438V53.625H38.1371C37.986 54.4208 37.8946 55.2362 37.8434 56.0625H3.65625V12.1875ZM52.4062 24.375C53.0778 24.375 53.625 24.921 53.625 25.5938C53.625 26.2665 53.0778 26.8125 52.4062 26.8125C51.7347 26.8125 51.1875 26.2665 51.1875 25.5938C51.1875 24.921 51.7347 24.375 52.4062 24.375ZM43.875 18.2812C43.875 17.6085 44.4222 17.0625 45.0938 17.0625C45.7653 17.0625 46.3125 17.6085 46.3125 18.2812C46.3125 18.954 45.7653 19.5 45.0938 19.5C44.4222 19.5 43.875 18.954 43.875 18.2812ZM35.3438 29.25C35.3438 29.9228 34.7965 30.4688 34.125 30.4688C33.4535 30.4688 32.9062 29.9228 32.9062 29.25C32.9062 28.5772 33.4535 28.0312 34.125 28.0312C34.7965 28.0312 35.3438 28.5772 35.3438 29.25ZM57.2812 67.0312C51.9053 67.0312 47.5312 62.6572 47.5312 57.2812C47.5312 51.9053 51.9053 47.5312 57.2812 47.5312C62.6572 47.5312 67.0312 51.9053 67.0312 57.2812C67.0312 62.6572 62.6572 67.0312 57.2812 67.0312ZM40.2188 47.8615C39.635 48.9145 39.1523 50.0272 38.7697 51.1875H37.7812V41.4375H40.2188V47.8615ZM56.0625 40.2809V45.1559C49.9127 45.7702 45.0938 50.973 45.0938 57.2812C45.0938 59.0643 45.4886 60.7547 46.1797 62.283L41.9518 64.7242C40.8525 62.4719 40.2188 59.9515 40.2188 57.2812C40.2188 48.2844 47.2229 40.9098 56.0625 40.2809ZM57.2812 74.3438C51.4142 74.3438 46.2296 71.3663 43.1584 66.8423L47.4033 64.3914C49.619 67.4603 53.2155 69.4688 57.2812 69.4688C61.347 69.4688 64.9435 67.4603 67.1592 64.3914L71.4041 66.8423C68.3329 71.3663 63.1483 74.3438 57.2812 74.3438ZM72.6107 64.7242L68.3828 62.283C69.0739 60.7547 69.4688 59.0643 69.4688 57.2812C69.4688 50.973 64.6498 45.7689 58.5 45.1559V40.2809C67.3396 40.9098 74.3438 48.2844 74.3438 57.2812C74.3438 59.9515 73.71 62.4719 72.6107 64.7242Z" fill="#04488F"/>
<path d="M57.2812 49.9688C53.2484 49.9688 49.9688 53.2484 49.9688 57.2812C49.9688 61.3141 53.2484 64.5938 57.2812 64.5938C61.3141 64.5938 64.5938 61.3141 64.5938 57.2812C64.5938 53.2484 61.3141 49.9688 57.2812 49.9688ZM57.2812 62.1562C54.5927 62.1562 52.4062 59.9698 52.4062 57.2812C52.4062 54.5927 54.5927 52.4062 57.2812 52.4062C59.9698 52.4062 62.1562 54.5927 62.1562 57.2812C62.1562 59.9698 59.9698 62.1562 57.2812 62.1562Z" fill="#04488F"/>
<path d="M6.09375 14.625H8.53125V17.0625H6.09375V14.625Z" fill="#04488F"/>
<path d="M10.9688 14.625H28.0312V17.0625H10.9688V14.625Z" fill="#04488F"/>
<path d="M6.09375 19.5H8.53125V21.9375H6.09375V19.5Z" fill="#04488F"/>
<path d="M10.9688 19.5H28.0312V21.9375H10.9688V19.5Z" fill="#04488F"/>
<path d="M6.09375 24.375H8.53125V26.8125H6.09375V24.375Z" fill="#04488F"/>
<path d="M10.9688 24.375H28.0312V26.8125H10.9688V24.375Z" fill="#04488F"/>
<path d="M6.09375 29.25H8.53125V31.6875H6.09375V29.25Z" fill="#04488F"/>
<path d="M10.9688 29.25H28.0312V31.6875H10.9688V29.25Z" fill="#04488F"/>
<path d="M6.09375 53.625H13.4062V41.4375H6.09375V53.625ZM8.53125 43.875H10.9688V51.1875H8.53125V43.875Z" fill="#04488F"/>
<path d="M15.8438 53.625H23.1562V43.875H15.8438V53.625ZM18.2812 46.3125H20.7188V51.1875H18.2812V46.3125Z" fill="#04488F"/>
<path d="M25.5938 53.625H32.9062V34.125H25.5938V53.625ZM28.0312 36.5625H30.4688V51.1875H28.0312V36.5625Z" fill="#04488F"/>
</svg>
