<svg width="78" height="78" viewBox="0 0 78 78" fill="none" xmlns="http://www.w3.org/2000/svg">
<path d="M38.9998 75.8922C31.7033 75.8922 24.5706 73.7285 18.5038 69.6748C12.4369 65.621 7.70842 59.8593 4.91616 53.1182C2.12389 46.3771 1.39331 38.9594 2.81679 31.803C4.24028 24.6467 7.75389 18.0732 12.9133 12.9138C18.0727 7.75437 24.6463 4.24076 31.8026 2.81728C38.9589 1.3938 46.3766 2.12438 53.1178 4.91664C59.8589 7.7089 65.6206 12.4374 69.6743 18.5043C73.7281 24.5711 75.8917 31.7038 75.8917 39.0003C75.8806 48.7812 71.9902 58.1583 65.074 65.0745C58.1579 71.9906 48.7808 75.881 38.9998 75.8922ZM38.9998 4.21652C32.1203 4.21652 25.3952 6.25655 19.675 10.0786C13.9548 13.9007 9.4965 19.3332 6.8638 25.6891C4.23109 32.045 3.54226 39.0389 4.8844 45.7863C6.22654 52.5337 9.53937 58.7315 14.404 63.5961C19.2686 68.4607 25.4665 71.7736 32.2139 73.1157C38.9613 74.4578 45.9551 73.769 52.311 71.1363C58.6669 68.5036 64.0994 64.0453 67.9215 58.3251C71.7436 52.6049 73.7836 45.8799 73.7836 39.0003C73.773 29.7783 70.1049 20.9371 63.584 14.4162C57.0631 7.89523 48.2218 4.22712 38.9998 4.21652Z" fill="#04488F"/>
<path d="M39.1305 47.2498C37.4763 47.2498 35.8592 46.7593 34.4838 45.8403C33.1083 44.9212 32.0363 43.615 31.4033 42.0866C30.7702 40.5583 30.6046 38.8766 30.9273 37.2542C31.25 35.6317 32.0466 34.1414 33.2163 32.9717C34.3861 31.802 35.8764 31.0054 37.4988 30.6827C39.1212 30.36 40.803 30.5256 42.3313 31.1586C43.8596 31.7917 45.1658 32.8637 46.0849 34.2392C47.0039 35.6146 47.4944 37.2317 47.4944 38.8859C47.4916 41.1033 46.6096 43.2291 45.0416 44.797C43.4737 46.365 41.3479 47.247 39.1305 47.2498ZM39.1305 32.6311C37.8932 32.6311 36.6837 32.9981 35.6549 33.6855C34.6261 34.373 33.8243 35.35 33.3508 36.4932C32.8774 37.6364 32.7535 38.8943 32.995 40.1078C33.2365 41.3213 33.8324 42.436 34.7074 43.3109C35.5824 44.1857 36.6971 44.7814 37.9107 45.0227C39.1243 45.264 40.3822 45.1399 41.5252 44.6663C42.6683 44.1926 43.6453 43.3906 44.3325 42.3617C45.0198 41.3328 45.3865 40.1232 45.3863 38.8859C45.3841 37.2275 44.7243 35.6378 43.5515 34.4652C42.3788 33.2927 40.7889 32.6331 39.1305 32.6311Z" fill="#04488F"/>
<path d="M33.1691 35.7125C32.9718 35.7131 32.7783 35.6583 32.6106 35.5543C32.4428 35.4503 32.3077 35.3013 32.2205 35.1243C28.5513 27.669 19.1818 28.6946 19.0869 28.7009C18.8099 28.733 18.5313 28.6539 18.3124 28.4811C18.0935 28.3082 17.9521 28.0556 17.9191 27.7786C17.6278 25.5742 17.8741 23.3321 18.6369 21.2435C19.2241 19.6879 20.1322 18.2734 21.3021 17.0919C22.472 15.9104 23.8774 14.9884 25.4271 14.3858C27.1069 13.7139 28.9078 13.398 30.7159 13.4578C32.5241 13.5177 34.3001 13.9521 35.9318 14.7336C45.0304 19.0974 43.5663 31.9685 43.4999 32.5145C43.4661 32.7921 43.3234 33.0449 43.1032 33.2172C42.883 33.3896 42.6033 33.4674 42.3257 33.4336C42.0481 33.3998 41.7953 33.2571 41.6229 33.0369C41.4506 32.8167 41.3727 32.537 41.4066 32.2594C41.4213 32.1403 42.7494 20.3412 35.02 16.6341C33.6518 15.9794 32.1627 15.6155 30.6468 15.5652C29.1308 15.515 27.6209 15.7795 26.2124 16.3421C24.9346 16.8371 23.7753 17.5955 22.8099 18.5679C21.8445 19.5404 21.0946 20.7052 20.609 21.9866C20.0725 23.4472 19.8415 25.0024 19.9302 26.5559C22.8436 26.5116 30.6099 27.0766 34.1157 34.1978C34.1768 34.322 34.2129 34.4571 34.2218 34.5953C34.2307 34.7334 34.2124 34.872 34.1677 35.0031C34.1231 35.1341 34.0531 35.2551 33.9617 35.3591C33.8703 35.4631 33.7593 35.5481 33.635 35.6092C33.49 35.6797 33.3304 35.7151 33.1691 35.7125Z" fill="#04488F"/>
<path d="M32.1636 65.6188C29.4724 65.6083 26.8637 64.6886 24.761 63.0089C23.3385 61.8896 22.1638 60.4873 21.3111 58.8907C20.4583 57.2941 19.9461 55.5379 19.8069 53.7333C19.0364 43.6723 30.9156 38.5043 31.4215 38.2893C31.6776 38.1857 31.9642 38.1868 32.2194 38.2924C32.4747 38.398 32.6784 38.5995 32.7865 38.8537C32.8947 39.1079 32.8987 39.3944 32.7978 39.6516C32.6969 39.9087 32.499 40.116 32.2469 40.2287C32.1362 40.2761 21.2541 45.0257 21.9087 53.573C22.0251 55.0857 22.4542 56.5578 23.1689 57.896C23.8835 59.2343 24.8682 60.4097 26.0606 61.3477C27.1287 62.2075 28.3659 62.8325 29.6917 63.1821C31.0175 63.5317 32.4021 63.5981 33.7552 63.3768C35.2881 63.1121 36.7504 62.5356 38.0515 61.6829C36.5759 59.2175 33.1618 52.1754 37.5772 45.577C37.7328 45.3445 37.9743 45.1834 38.2487 45.1291C38.5231 45.0747 38.8078 45.1315 39.0402 45.2871C39.2727 45.4427 39.4338 45.6842 39.4882 45.9586C39.5425 46.233 39.4857 46.5177 39.3301 46.7501C34.7249 53.6278 40.1038 61.0252 40.3346 61.3361C40.5023 61.5598 40.5744 61.8409 40.5348 62.1176C40.4953 62.3944 40.3475 62.6441 40.1238 62.8118C38.3573 64.1669 36.289 65.0743 34.0957 65.4564C33.4571 65.5631 32.811 65.6174 32.1636 65.6188Z" fill="#04488F"/>
<path d="M54.0299 49.885C50.4756 49.885 46.5693 48.5969 42.3647 46.0314C42.2429 45.9611 42.1363 45.8673 42.0513 45.7552C41.9663 45.6432 41.9046 45.5153 41.8697 45.3791C41.8349 45.2428 41.8277 45.101 41.8485 44.9619C41.8694 44.8228 41.9178 44.6893 41.9911 44.5693C42.0643 44.4492 42.1608 44.345 42.2749 44.2628C42.389 44.1806 42.5184 44.1221 42.6554 44.0907C42.7925 44.0593 42.9345 44.0556 43.073 44.0799C43.2115 44.1042 43.3438 44.1559 43.462 44.2321C48.8176 47.4997 53.5493 48.5147 57.5199 47.2456C60.7035 46.0897 63.3051 43.7285 64.7633 40.6715C67.1877 34.3018 61.6012 29.9201 59.1705 28.3728C55.9904 36.0073 46.2795 36.8432 45.8462 36.8758C45.5688 36.8951 45.295 36.8039 45.0845 36.6221C44.874 36.4404 44.7438 36.1828 44.7224 35.9055C44.701 35.6282 44.79 35.3537 44.9701 35.1417C45.1502 34.9298 45.4068 34.7977 45.6839 34.7741C45.7819 34.7667 55.4213 33.9182 57.5947 26.5261C57.6383 26.3775 57.7141 26.2403 57.8167 26.1242C57.9193 26.0082 58.0462 25.9163 58.1884 25.8549C58.3306 25.7935 58.4846 25.7642 58.6394 25.7691C58.7942 25.774 58.946 25.8129 59.0841 25.8831C63.0136 27.8858 69.6689 33.7084 66.7228 41.4589C65.8938 43.2607 64.712 44.878 63.2471 46.2152C61.7823 47.5524 60.0642 48.5824 58.1945 49.2441C56.8483 49.6739 55.443 49.8902 54.0299 49.885Z" fill="#04488F"/>
</svg>
