<svg width="50" height="50" viewBox="0 0 50 50" fill="none" xmlns="http://www.w3.org/2000/svg">
<path d="M46.4844 5.46875H3.51562C2.79067 5.46955 2.09564 5.75789 1.58301 6.27051C1.07039 6.78314 0.782051 7.47817 0.78125 8.20312V37.1094C0.782051 37.8343 1.07039 38.5294 1.58301 39.042C2.09564 39.5546 2.79067 39.8429 3.51562 39.8438H19.3594L18.8906 42.1875H15.625C15.4178 42.1875 15.2191 42.2698 15.0726 42.4163C14.9261 42.5628 14.8438 42.7616 14.8438 42.9688V45.3125C14.8438 45.5197 14.9261 45.7184 15.0726 45.8649C15.2191 46.0114 15.4178 46.0938 15.625 46.0938H34.375C34.5822 46.0938 34.7809 46.0114 34.9274 45.8649C35.0739 45.7184 35.1562 45.5197 35.1562 45.3125V42.9688C35.1562 42.7616 35.0739 42.5628 34.9274 42.4163C34.7809 42.2698 34.5822 42.1875 34.375 42.1875H31.1094L30.6406 39.8438H46.4844C47.2093 39.8429 47.9044 39.5546 48.417 39.042C48.9296 38.5294 49.2179 37.8343 49.2188 37.1094V8.20312C49.2179 7.47817 48.9296 6.78314 48.417 6.27051C47.9044 5.75789 47.2093 5.46955 46.4844 5.46875ZM33.5938 43.75V44.5312H16.4062V43.75H33.5938ZM20.4844 42.1875L20.9531 39.8438H29.0469L29.5156 42.1875H20.4844ZM47.6562 37.1094C47.656 37.4201 47.5324 37.718 47.3127 37.9377C47.093 38.1574 46.7951 38.281 46.4844 38.2812H3.51562C3.2049 38.281 2.90698 38.1574 2.68727 37.9377C2.46756 37.718 2.34401 37.4201 2.34375 37.1094V35.1562H47.6562V37.1094ZM47.6562 33.5938H2.34375V8.20312C2.34401 7.8924 2.46756 7.59448 2.68727 7.37477C2.90698 7.15506 3.2049 7.03151 3.51562 7.03125H46.4844C46.7951 7.03151 47.093 7.15506 47.3127 7.37477C47.5324 7.59448 47.656 7.8924 47.6562 8.20312V33.5938Z" fill="white"/>
<path d="M25.7812 35.1562H24.2188C24.0115 35.1562 23.8128 35.2386 23.6663 35.3851C23.5198 35.5316 23.4375 35.7303 23.4375 35.9375C23.4375 36.1447 23.5198 36.3434 23.6663 36.4899C23.8128 36.6364 24.0115 36.7188 24.2188 36.7188H25.7812C25.9885 36.7188 26.1872 36.6364 26.3337 36.4899C26.4802 36.3434 26.5625 36.1447 26.5625 35.9375C26.5625 35.7303 26.4802 35.5316 26.3337 35.3851C26.1872 35.2386 25.9885 35.1562 25.7812 35.1562Z" fill="white"/>
</svg>
