<svg width="50" height="50" viewBox="0 0 50 50" fill="none" xmlns="http://www.w3.org/2000/svg">
<g clip-path="url(#clip0)">
<path d="M1.04182 14.5833C1.61682 14.5833 2.08349 14.1167 2.08349 13.5417V5.20833C2.08349 3.48542 3.48557 2.08333 5.20849 2.08333H13.5418C14.1168 2.08333 14.5835 1.61667 14.5835 1.04167C14.5835 0.466667 14.1168 0 13.5418 0H5.20849C2.33766 0 0.000156403 2.33542 0.000156403 5.20833V13.5417C0.000156403 14.1167 0.466824 14.5833 1.04182 14.5833Z" fill="white"/>
<path d="M5.20849 49.9998H13.5418C14.1168 49.9998 14.5835 49.5332 14.5835 48.9582C14.5835 48.3832 14.1168 47.9165 13.5418 47.9165H5.20849C3.48557 47.9165 2.08349 46.5144 2.08349 44.7915V36.4582C2.08349 35.8832 1.61682 35.4165 1.04182 35.4165C0.466824 35.4165 0.000156403 35.8832 0.000156403 36.4582V44.7915C0.000156403 47.6644 2.33766 49.9998 5.20849 49.9998Z" fill="white"/>
<path d="M36.4583 49.9998H44.7917C47.6625 49.9998 50 47.6644 50 44.7915V36.4582C50 35.8832 49.5333 35.4165 48.9583 35.4165C48.3833 35.4165 47.9167 35.8832 47.9167 36.4582V44.7915C47.9167 46.5144 46.5146 47.9165 44.7917 47.9165H36.4583C35.8833 47.9165 35.4167 48.3832 35.4167 48.9582C35.4167 49.5332 35.8833 49.9998 36.4583 49.9998Z" fill="white"/>
<path d="M48.9583 14.5833C49.5333 14.5833 50 14.1167 50 13.5417V5.20833C50 2.33542 47.6625 0 44.7917 0H36.4583C35.8833 0 35.4167 0.466667 35.4167 1.04167C35.4167 1.61667 35.8833 2.08333 36.4583 2.08333H44.7917C46.5146 2.08333 47.9167 3.48542 47.9167 5.20833V13.5417C47.9167 14.1167 48.3833 14.5833 48.9583 14.5833Z" fill="white"/>
<path d="M13.5418 39.5832H36.4585C38.1814 39.5832 39.5835 38.1811 39.5835 36.4582V30.2082C39.5835 29.6332 39.1168 29.1665 38.5418 29.1665C37.9668 29.1665 37.5002 29.6332 37.5002 30.2082V36.4582C37.5002 37.0311 37.0335 37.4998 36.4585 37.4998H13.5418C12.9668 37.4998 12.5002 37.0311 12.5002 36.4582V30.2082C12.5002 29.6332 12.0335 29.1665 11.4585 29.1665C10.8835 29.1665 10.4168 29.6332 10.4168 30.2082V36.4582C10.4168 38.1811 11.8189 39.5832 13.5418 39.5832Z" fill="white"/>
<path d="M11.4585 22.917C12.0335 22.917 12.5002 22.4503 12.5002 21.8753V13.542C12.5002 12.9691 12.9668 12.5003 13.5418 12.5003H36.4585C37.0335 12.5003 37.5002 12.9691 37.5002 13.542V21.8753C37.5002 22.4503 37.9668 22.917 38.5418 22.917C39.1168 22.917 39.5835 22.4503 39.5835 21.8753V13.542C39.5835 11.8191 38.1814 10.417 36.4585 10.417H13.5418C11.8189 10.417 10.4168 11.8191 10.4168 13.542V21.8753C10.4168 22.4503 10.8835 22.917 11.4585 22.917Z" fill="white"/>
<path d="M7.29167 31.2498H42.7083C43.2833 31.2498 43.75 30.7832 43.75 30.2082C43.75 29.6332 43.2833 29.1665 42.7083 29.1665H7.29167C6.71667 29.1665 6.25 29.6332 6.25 30.2082C6.25 30.7832 6.71667 31.2498 7.29167 31.2498Z" fill="white"/>
</g>
<defs>
<clipPath id="clip0">
<rect width="50" height="50" fill="white" transform="matrix(-1 0 0 1 50 0)"/>
</clipPath>
</defs>
</svg>
